<svg version="1.1" viewBox="214.5 42.5 596 596" xmlns="http://www.w3.org/2000/svg">
    <path d="m511 122 2 1 18 41 15 36 16 39 18 45 16 39 20 49 36 90 4-5 8-11 4-8 2-13-1-11-4-9-2-8h-4l-9 6h-6l-5-6-10-25-12-37-5-21-10-30-9-19-11-18-8-10-12-14-5-4-1-7 5 2 12 11 9 11 12 18 11 21 8 21 7 23v6h2l2-4 7-9 4-11 3-9 5-3 19 6 16 4-10-21-4-6v-2h-2l-2 10-5-2-8-6-7-3-6 1-2 2 1 13-3 14-2 4-3-1-3-8-2-7-5-6-2-8v-10l-2-4 4-6 5-1 2-3-1-5-8-6-3-1-1 7-4-2-10-15-12-13-8-6-10-6-9-4v-3l7-1-4-4v-1l9 1 17 5 21 10 15 10 13 11 10 9 10 11 10 13 8 13 8 15 7 19 5 19 3 20v30l-4 25-5 16-5 13-8 15-8 12-7 9-4 2 11 26 9 16 8 10 7 8 12 9 15 7v5h-134v-4l15-8 8-7 5-9 1-2v-16l-7 7-10 7-7 6-6 7-11 9-10 7-8 4-2-1 1-4 15-11 12-10-3 1-16 6-16 4-13 2h-42l2 9 1 5-6-1-9-7-5-8-25-7-21-8-17-9-11-8-10-9-2 7v13l5 10 7 7 14 9 10 5v4h-110l1-5 13-7 11-8 5-5 9-10 8-13 7-16 13-34 16-42 14-36 34-85 20-49 16-39 10-24 17-41zm-15 92-12 30-17 42-19 48-6 15-1 2 5-1 17-6 23-4 11-1 52-2-3-10-9-21-23-54-12-28-5-10zm-1 139-18 3-16 6-15 9-13 12-10 14-9 17-9 23-1 5 6 24 6 15 7 13 8 11 8 9 8 6 16 7 6 1-4-17-3-18-2-15-15-10-7-8-6-12-3-9-4-5-1-4v-10l4-6 4-4 2-9 5-9 8-2 5-1 5-5 8 1 4 1 8 1 11 6 13 10 16 8 7 9 5 6 16 7h17l5 4 1 2v9l-4 7-6 7-3 8-2 13-5 8-8 3h-10l-6 7-3 7-11 7-5 2-17 2-4 4v6l12 2h27l23-3 15-4 16-7 8-6 8-9 8-15 4-11v-6l-14-34-16-39-18-43-1-1zm-95 97-9 26-3 8 1 5 14 11 16 10 15 7-2-4-8-9-7-11-7-14-7-21-2-8zm208 32-5 12-7 12h3l11-9 1-1-1-10z" fill="#E4CC84"/>
    <path d="m470 168h10v5l-4 2-17 3-18 5-20 8-17 9-17 12-12 11-9 8-9 11-10 13-11 19-8 17-7 22-4 21v6l7 11 3-25 4-17 6-17 8-17 10-16 10-13 12-14 14-13 14-10 10-6 19-8 17-5 11-2h9l-2 5-12 20-7 14-6-1-5 5-1 6h10l1 4-11 27-14 36-7 16-6-1-4 1-6-4-5 1-6 7-4 12-1 6v15l2 9v5l-7-1-8-7-5-12-2-9-1-24 1-16-6 16-3 18-2 2-2-6v-9l3-18 7-23 7-14 11-15 11-14 9-10-3 1-10 6-10 8-7 7-1 2h-2l-2 4-12 18-8 16-6 15-5 19-3 24v10l6 8 11 10 14 8 14 5 8 3-1 4-10-1-16-6-14-9-10-9-3-3 1 3 3 24 5 19 8 19 8 14 11 14-2 5h-3l-10-13-8-13-8-17-6-20-3-16-2-27-6-9-1-6h-2l1 33 4 26 6 21 8 18 7 13 12 16 1 1v6l-3 1-5-5-10-14-8-14-7-15-6-18-4-17-3-25v-24l3-26 6-24 8-20 8-16 12-18 8-10 9-10 13-13 14-11 15-10 15-8 21-8 19-5z" fill="#E4CC84"/>
    <path d="m541 168 15 1 20 5 20 8 21 11 16 11 16 13 15 15 13 17 13 22 8 19 6 19 4 19 2 26-1 24-3 22-6 22-8 21-9 17-10 14-6 7h-3l-1-5 13-19 9-16 8-21 6-24 2-12 1-11v-27l-2-19-5-22-7-20-8-16-7-12-9-12-9-11-14-14-14-11-15-10-23-12-27-9-10-2-10-1-1-1z" fill="#E4CC84"/>
    <path d="m434 549 7 1 21 6 17 3 21 2h14l22-2 20-4 16-5h3v6l-21 7-22 4-15 1h-20l-21-2-23-5-15-5-4-3z" fill="#E4CC84"/>
</svg>